<?xml version="1.0" encoding="UTF-8"?>
<svg width="500px" height="124px" viewBox="0 0 500 124" version="1.1" xmlns="http://www.w3.org/2000/svg" xmlns:xlink="http://www.w3.org/1999/xlink">
    <title>FINAL</title>
    <g id="FINAL" stroke="none" stroke-width="1" fill="none" fill-rule="evenodd">
        <g id="Staminads" transform="translate(148.687500, 41.674000)" fill="#263238" fill-opacity="0.85" fill-rule="nonzero">
            <path d="M0,37.814 C2.263,43.727 9.344,49.202 20.075,49.202 C31.463,49.202 38.763,44.165 38.763,34.456 C38.763,24.528 26.426,21.754 22.63,20.513 C18.542,19.272 11.096,18.031 11.096,13.505 C11.096,10.147 13.87,8.176 19.126,8.176 C25.404,8.176 30.441,11.388 31.755,14.089 L38.252,10.001 C36.427,4.891 29.054,0 20.075,0 C10.22,0 1.825,4.161 1.825,13.87 C1.825,24.09 13.797,26.28 17.812,27.521 C21.608,28.762 29.711,30.149 29.711,34.821 C29.711,38.617 27.448,41.026 20.951,41.026 C13.797,41.026 8.03,36.5 6.57,33.215 L0,37.814 Z" id="Path"></path>
            <path d="M63.291,20.732 L63.291,14.746 L55.845,14.746 L55.845,4.453 L47.961,4.453 L47.961,14.746 L43.508,14.746 L43.508,20.732 L47.961,20.732 L47.961,39.201 C47.961,45.041 51.027,48.326 57.232,48.326 L62.926,48.326 L62.926,42.194 L60.371,42.194 C58.181,42.194 55.845,41.756 55.845,37.96 L55.845,20.732 L63.291,20.732 Z" id="Path"></path>
            <path d="M94.17,14.746 L94.17,19.126 C91.834,16.06 88.257,14.235 83.585,14.235 C74.241,14.235 67.452,21.389 67.452,31.536 C67.452,41.537 74.241,48.91 83.585,48.91 C88.257,48.91 91.834,47.012 94.17,44.019 L94.17,48.326 L101.981,48.326 L101.981,14.746 L94.17,14.746 Z M84.68,41.537 C78.913,41.537 75.117,37.303 75.117,31.536 C75.117,25.769 78.913,21.608 84.68,21.608 C90.447,21.608 94.17,25.769 94.17,31.536 C94.17,37.303 90.447,41.537 84.68,41.537 Z" id="Shape"></path>
            <path d="M149.285,14.235 C145.343,14.235 140.817,15.622 138.116,19.71 C135.78,15.695 131.546,14.235 127.531,14.235 C124.246,14.235 120.742,15.476 118.26,18.396 L118.26,14.746 L110.449,14.746 L110.449,48.326 L118.26,48.326 L118.26,28.762 C118.26,22.703 122.275,21.097 125.195,21.097 C128.042,21.097 132.203,22.703 132.203,28.762 L132.203,48.326 L140.014,48.326 L140.014,28.762 C140.014,22.703 144.102,21.097 146.949,21.097 C149.796,21.097 153.957,22.703 153.957,28.762 L153.957,48.326 L161.841,48.326 L161.841,27.74 C161.841,17.447 155.344,14.235 149.285,14.235 Z" id="Path"></path>
            <path d="M174.616,9.052 C176.806,9.052 179.069,7.373 179.069,4.599 C179.069,1.825 176.806,0.292 174.616,0.292 C172.426,0.292 170.236,1.825 170.236,4.599 C170.236,7.373 172.426,9.052 174.616,9.052 Z M178.558,48.326 L178.631,14.746 L170.674,14.746 L170.674,48.326 L178.558,48.326 Z" id="Shape"></path>
            <path d="M205.13,14.235 C201.553,14.235 197.83,15.33 195.275,18.323 L195.275,14.746 L187.464,14.746 L187.464,48.326 L195.275,48.326 L195.275,28.908 C195.275,22.849 199.436,20.878 202.794,20.878 C206.225,20.878 210.459,22.849 210.459,28.908 L210.459,48.326 L218.343,48.326 L218.343,27.74 C218.343,17.739 211.408,14.235 205.13,14.235 Z" id="Path"></path>
            <path d="M252.215,14.746 L252.215,19.126 C249.879,16.06 246.302,14.235 241.63,14.235 C232.286,14.235 225.497,21.389 225.497,31.536 C225.497,41.537 232.286,48.91 241.63,48.91 C246.302,48.91 249.879,47.012 252.215,44.019 L252.215,48.326 L260.026,48.326 L260.026,14.746 L252.215,14.746 Z M242.725,41.537 C236.958,41.537 233.162,37.303 233.162,31.536 C233.162,25.769 236.958,21.608 242.725,21.608 C248.492,21.608 252.215,25.769 252.215,31.536 C252.215,37.303 248.492,41.537 242.725,41.537 Z" id="Shape"></path>
            <path d="M293.971,0.876 L293.971,19.126 C291.635,16.06 288.058,14.235 283.386,14.235 C274.042,14.235 267.253,21.389 267.253,31.536 C267.253,41.537 274.042,48.91 283.386,48.91 C288.058,48.91 291.635,47.012 293.971,44.019 L293.971,48.326 L301.782,48.326 L301.782,0.876 L293.971,0.876 Z M284.481,41.537 C278.714,41.537 274.918,37.303 274.918,31.536 C274.918,25.769 278.714,21.608 284.481,21.608 C290.248,21.608 293.971,25.769 293.971,31.536 C293.971,37.303 290.248,41.537 284.481,41.537 Z" id="Shape"></path>
            <path d="M308.279,41.318 C309.958,45.479 315.068,49.275 323.098,49.275 C331.566,49.275 336.676,45.625 336.676,38.69 C336.676,31.463 327.551,29.273 324.777,28.397 C322.003,27.521 317.331,26.791 317.331,23.652 C317.331,21.535 319.156,20.075 322.66,20.075 C326.602,20.075 330.325,22.338 331.347,24.236 L336.53,20.951 C334.851,17.301 330.106,14.016 322.952,14.016 C315.725,14.016 309.739,17.155 309.739,24.017 C309.739,31.244 318.572,33.215 321.346,34.091 C324.12,34.967 329.011,35.77 329.011,38.982 C329.011,41.683 327.04,42.997 323.171,42.997 C318.645,42.997 314.63,40.004 313.754,37.741 L308.279,41.318 Z" id="Path"></path>
        </g>
        <path d="M72,12 L129,110 L15,110 L72,12 Z M72,78.2060463 L38.2527767,100.299038 L104.931132,100.299038 L72,78.2060463 Z M72.0320005,30.5571289 L35.8823242,92 L72.0320005,67.9242007 L106.943359,91.7260742 L72.0320005,30.5571289 Z" id="Combined-Shape" fill="#7763F1"></path>
    </g>
</svg>